<?xml version="1.0" encoding="utf-8"?>
<!-- Generator: Adobe Illustrator 19.2.1, SVG Export Plug-In . SVG Version: 6.00 Build 0)  -->
<svg version="1.1" id="Capa_1" xmlns="http://www.w3.org/2000/svg" xmlns:xlink="http://www.w3.org/1999/xlink" x="0px" y="0px"
	 viewBox="0 0 532 232" style="enable-background:new 0 0 532 232;" xml:space="preserve">
<style type="text/css">
	.st0{fill-rule:evenodd;clip-rule:evenodd;}
</style>
<g>
	<g>
		<path d="M137.7,72.2c-4.7-1.4-9.8-1.9-14.9-1.9c-10.9,0-23.5,4.4-32.2,13.1c-8.7,8.7-13.5,20.2-13.5,32.6
			c0,12.4,4.8,24.2,13.5,32.9c8.7,8.7,20.4,13,32.7,13c7.3,0,14.2-0.9,20.6-4.2h0.2v-20.7h-11.8l8.3-19.1h24.8v51.5l-4.9,3.3
			c-2.2,1.5-4.5,2.9-7.1,4c-9.3,4.7-19.5,7.1-30,7.1c-9.1,0-18-1.8-26.2-5.3c-8.2-3.5-15.3-8.4-21.5-14.6
			c-6.2-6.2-11.1-13.3-14.6-21.5c-3.5-8.2-5.3-17.1-5.3-26.2c0-9.1,1.8-18,5.3-26.2c3.5-8.2,8.4-15.3,14.6-21.5
			c6.2-6.2,13.3-11.1,21.5-14.6c8.2-3.5,17.1-5.3,26.2-5.3c8.2,0,15.5,1.1,22.9,3.9L137.7,72.2z"/>
		<rect x="316.4" y="48.5" width="22.6" height="135.2"/>
		<polygon class="st0" points="237.4,48.5 178.7,183.7 201.2,183.7 237.4,100.5 273.5,183.7 296.1,183.7 		"/>
		<polygon class="st0" points="418,48.5 359.3,183.7 381.9,183.7 418,100.5 454.1,183.7 476.7,183.7 		"/>
	</g>
</g>
</svg>
